<?xml version="1.0" encoding="UTF-8"?><svg id="Ebene_1" xmlns="http://www.w3.org/2000/svg" viewBox="0 0 803.45 130.99"><defs><style>.cls-1{fill:#e00;}</style></defs><path class="cls-1" d="m173.98,72.74c0-2.33,1.81-4.22,4.14-4.22s4.14,1.89,4.14,4.22-1.9,4.14-4.14,4.14-4.14-1.9-4.14-4.14Zm-18.46,13.97v-7.24c0-6.29,1.81-9.13,7.75-9.13,1.81,0,4.22.34,5.94.6v-4.48c-.86-.17-3.62-.69-7.15-.69-7.67,0-12.15,4.39-12.15,12.58v8.36h-5.34v4.39h5.43v38.85h5.6v-38.85l20.07-.02v38.87h5.6v-43.25h-25.76Zm67.4,14.99v28.26h5.6v-30.24c0-8.79-5.08-13.87-13.78-13.87-6.98,0-11.72,3.01-14.47,7.75v-6.89h-5.6v43.25h5.6v-25.41c0-7.75,5.6-13.87,12.92-13.87,6.81,0,9.73,3.62,9.73,11.03Zm42.06,24.2l.09,4.05h5.34v-30.07c0-9.73-4.74-14.04-15.94-14.04-5.51,0-9.13.77-12.75,1.89v5c2.58-.95,6.55-2.33,11.8-2.33,8.53,0,11.37,3.1,11.37,9.74v2.84h-4.14c-6.2,0-11.03.69-14.64,2.33-5.34,2.33-7.93,6.55-7.93,12.41,0,9.56,6.2,13.09,13.52,13.09,6.12,0,10.94-2.67,13.27-4.91Zm-20.93-8.1c0-8.27,6.12-10.25,16.71-10.25h4.14v13.44c-2.58,2.84-6.72,5.17-11.89,5.17-6.81,0-8.96-4.05-8.96-8.36Zm67.21-16.1v28.26h5.6v-30.24c0-8.79-5.08-13.87-13.78-13.87-6.98,0-11.72,3.01-14.47,7.75v-6.89h-5.6v43.25h5.6v-25.41c0-7.75,5.6-13.87,12.92-13.87,6.81,0,9.73,3.62,9.73,11.03Zm15.63,23.87v4.39h32.48v-4.39h-26.36c2.24-3.79,7.06-10.77,11.97-17.23,6.2-8.18,11.97-15.33,13.53-17.23v-4.39h-30.75v4.39h24.29c-2.15,2.58-6.2,7.58-11.37,14.56-6.89,9.22-12.23,17.32-13.78,19.9Zm57.48-31.97c1.55.09,4.39.43,5.43.6v35.75h11.89v-43.94h-17.32v7.58Zm17.57-21.19c0-3.7-3.27-6.63-7.24-6.63s-7.15,2.93-7.15,6.63,3.27,6.55,7.15,6.55,7.24-2.93,7.24-6.55Zm40.14,30.24v27.31h11.89v-30.15c0-9.05-5.08-14.64-14.47-14.64-5.6,0-10.42,2.5-12.75,5.94l-.34-5.08h-11.2v43.94h11.89v-25.24c0-5.08,3.96-9.56,8.44-9.56,3.96,0,6.55,2.15,6.55,7.49Zm50.94-27.05v-8.79c-2.07-.43-5.86-1.03-10.16-1.03-8.87,0-14.73,4.65-14.73,14.3v5.94h-5.08v9.3h5.17v34.63h11.89v-34.63h9.48v-9.3h-9.56v-4.48c0-5,2.07-6.72,6.12-6.72,2.59,0,5.26.43,6.89.77Zm42.46,32.39c0-13.35-7.15-23-21.02-23s-21.02,9.65-21.02,23,7.58,23,21.02,23,21.02-10.17,21.02-23Zm-29.46,0c0-8.61,2.67-13.87,8.44-13.87s8.44,5.26,8.44,13.87-2.67,13.87-8.44,13.87-8.44-5.25-8.44-13.87Zm65.68-11.11v-10.85c-.52-.17-2.15-.52-3.88-.52-4.74,0-8.87,2.84-11.63,8.44l-.34-7.93h-11.2v43.94h11.89v-21.97c0-5.17,3.45-11.54,10.59-11.54,1.98,0,3.71.26,4.57.43Zm58.68,5.34v27.74h11.89v-30.32c0-9.05-4.48-14.47-13.78-14.47-6.12,0-10.25,2.84-13.01,6.55-1.98-4.22-5.94-6.55-11.97-6.55-5.51,0-9.56,2.5-11.89,5.94l-.34-5.08h-11.2v43.94h11.89v-25.24c0-5.08,3.1-9.56,7.58-9.56,3.96,0,5.69,2.15,5.69,7.06v27.74h11.89v-25.24c0-5.08,3.1-9.56,7.58-9.56,3.96,0,5.69,2.15,5.69,7.06Zm46.55,24.55l.34,3.19h11.11v-29.81c0-10.68-5.69-14.99-17.83-14.99-5.94,0-10.25.6-15.25,1.98v9.05c4.83-1.72,8.79-2.5,12.66-2.5,6.55,0,8.7,1.9,8.7,6.29v1.72c-1.29,0-3.53.09-4.74.17-3.7.17-6.98.6-9.73,1.55-6.55,2.15-10.34,6.63-10.34,14.13,0,9.56,6.12,13.27,13.44,13.27,5.69,0,9.99-2.5,11.63-4.05Zm-13.52-10.08c0-4.39,2.84-6.98,11.46-6.98h1.81v9.74c-1.47,1.21-4.65,2.58-7.84,2.58-4.05,0-5.43-2.67-5.43-5.34Zm63.57,12.49l-2.07-8.53c-1.38.43-3.96.86-6.38.86-3.02,0-4.65-1.46-4.65-5.6v-20.59h11.03v-9.3h-11.03v-14.47c-4.14,2.15-8.62,3.96-11.89,5.17v9.3h-6.46v9.3h6.46v21.97c0,8.01,3.62,13.53,13.09,13.53,4.22,0,8.01-.6,11.89-1.64Zm5.22-35.58c1.55.09,4.39.43,5.43.6v35.75h11.89v-43.94h-17.32v7.58Zm17.57-21.19c0-3.7-3.27-6.63-7.24-6.63s-7.15,2.93-7.15,6.63,3.27,6.55,7.15,6.55,7.24-2.93,7.24-6.55Zm39.13,57.55h14.56c-6.55-10.77-13.27-19.56-18.09-24.9l16.8-19.04h-14.21l-13.78,16.45v-35.84h-11.89v63.32h11.89v-20.68c5.43,7.15,11.11,14.82,14.73,20.68ZM83.41,43.41H16.59C7.34,43.41,0,50.83,0,60v36.68h76.59v9.96H0v6.64c0,9.26,7.42,16.68,16.59,16.68h66.81c9.26,0,16.59-7.42,16.59-16.59v-36.68H23.23v-10.04h76.77v-6.64c0-9.26-7.42-16.59-16.59-16.59Zm-33.45-10.22c9.26,0,16.59-7.42,16.59-16.59S59.13,0,49.96,0s-16.68,7.42-16.68,16.59,7.51,16.59,16.68,16.59Z"/></svg>